<svg height="511pt" viewBox="0 -33 511.99943 511" width="511pt" xmlns="http://www.w3.org/2000/svg"><g fill-rule="evenodd"><path d="m148.082031 144.269531h-79.5c-13.589843 0-25.613281 8.238281-31.199219 24.230469l-25.730468 73.625c-10 28.5625 30.175781 46.71875 44.679687 5.074219v27.28125h112.320313v-60.460938h53.910156c25.929688 0 28.835938-39.992187-6.125-39.648437-49.296875.511718-34.847656-30.101563-68.355469-30.101563zm0 0" fill="#ffd89e"/><path d="m168.652344 373.078125v-98.597656h-112.320313v98.597656c0 36.796875 55.761719 34.144531 56.160157 0-.171876 20.578125 21.285156 29.757813 37.753906 25.082031.597656-.171875 1.167968-.34375 1.765625-.570312 4.902343-1.710938 9.234375-4.730469 12.226562-9.121094 2.761719-3.992188 4.414063-9.09375 4.414063-15.390625zm0 0" fill="#52cbf0"/><path d="m241.371094 214.019531h-72.71875v46.207031h306.90625c14.503906 0 26.355468-10.402343 26.355468-23.117187 0-12.683594-11.851562-23.085937-26.355468-23.085937h-234.1875zm0 0" fill="#b0e7f8"/><path d="m463.789062 260.226562h-295.136718v112.851563c0 6.296875-1.652344 11.398437-4.414063 15.390625h299.550781zm0 0" fill="#ffbd5a"/><path d="m437.492188 83.753906c0-27.304687-22.113282-49.425781-49.410157-49.425781-27.269531 0-49.378906 22.121094-49.378906 49.425781 0 27.28125 22.082031 49.398438 49.351563 49.429688h.027343.171875c27.210938-.117188 49.238282-22.207032 49.238282-49.429688zm0 0" fill="#ffddcf"/><path d="m388.082031 133.183594h-.027343zm-.054687 0c-3.761719 0-7.523438 0-11.285156 0-37.46875 0-68.15625 30.667968-68.15625 68.179687 0 4.304688.398437 8.550781 1.195312 12.65625h156.289062c.769532-4.105469 1.195313-8.351562 1.195313-12.65625 0-37.511719-30.6875-68.179687-68.15625-68.179687h-10.855469c-.054687 0-.113281 0-.171875 0h-.027343s0 0-.027344 0zm0 0" fill="#52cbf0"/><path d="m157.511719 75.6875c-13.992188 2.453125-31.226563 3.878906-49.863281 3.878906-18.066407 0-34.789063-1.339844-48.554688-3.648437-1.710938 5.15625-2.648438 10.6875-2.648438 16.445312 0 28.675781 23.25 51.90625 51.914063 51.90625 28.636719 0 51.886719-23.230469 51.886719-51.90625 0-5.84375-.96875-11.429687-2.734375-16.675781zm0 0" fill="#ffddcf"/><path d="m72.144531 40.914062c-29.121093 3.21875-49.320312 10.261719-49.320312 18.414063 0 6.867187 14.359375 12.941406 36.269531 16.589844 13.765625 2.308593 30.488281 3.648437 48.554688 3.648437 18.632812 0 35.871093-1.425781 49.863281-3.878906 21.171875-3.675781 34.933593-9.636719 34.933593-16.363281 0-8.035157-19.632812-14.992188-48.070312-18.269531.144531 1.253906.230469 2.507812.230469 3.792968 0 1.625-.113281 3.1875-.34375 4.730469-1.792969.253906-3.617188.511719-5.5.710937-19.460938 2.25-43.792969 2.566407-61.089844.171876-1.878906-.257813-3.703125-.542969-5.414063-.882813-.226562-1.542969-.339843-3.109375-.339843-4.730469 0-1.3125.085937-2.621094.226562-3.933594zm0 0" fill="#ffd89e"/><path d="m144.375 41.054688c-1.992188-17.128907-17.410156-30.46875-36.128906-30.46875-18.664063 0-34.023438 13.253906-36.101563 30.328124-.140625 1.3125-.226562 2.621094-.226562 3.933594 0 1.625.113281 3.191406.339843 4.730469 1.710938.34375 3.535157.628906 5.414063.882813 17.296875 2.394531 41.628906 2.082031 61.089844-.171876 1.882812-.199218 3.707031-.453124 5.5-.710937.230469-1.539063.34375-3.105469.34375-4.730469 0-1.285156-.085938-2.539062-.230469-3.792968zm0 0" fill="#ffbd5a"/><path d="m257.953125 328.492188h123.71875c10.085937 0 18.347656 8.269531 18.347656 18.359374v70.207032c0 10.089844-8.261719 18.355468-18.347656 18.355468h-123.71875c-10.085937 0-18.351563-8.265624-18.351563-18.355468v-70.207032c0-10.089843 8.265626-18.359374 18.351563-18.359374zm0 0" fill="#b0e7f8"/></g><path d="m477.289062 203.976562c.03125-.871093.0625-1.746093.0625-2.613281 0-33.191406-20.773437-61.605469-49.992187-72.964843 12.382813-10.914063 20.21875-26.875 20.21875-44.644532 0-32.8125-26.691406-59.507812-59.496094-59.507812-32.789062 0-59.464843 26.695312-59.464843 59.507812 0 17.71875 7.789062 33.644532 20.105468 44.554688-29.339844 11.300781-50.222656 39.777344-50.222656 73.054687 0 .863281.035156 1.71875.0625 2.574219h-47.558594c.949219-2.960938 1.429688-6.039062 1.429688-9.078125 0-8.238281-3.320313-15.855469-9.351563-21.441406-4.496093-4.164063-12.695312-9.132813-26.199219-9.132813l-.550781.003906c-.375.003907-.746093.003907-1.109375.003907-21.472656 0-26.902344-6.300781-33.1875-13.597657-5.6875-6.597656-12.628906-14.644531-28.246094-16.226562 10.257813-11.066406 16.542969-25.863281 16.542969-42.105469 0-2.972656-.222656-5.929687-.644531-8.859375.082031-.019531.171875-.039062.257812-.058594 8.058594-1.925781 32.585938-7.777343 32.585938-24.121093 0-13.46875-16.765625-22.664063-49.847656-27.367188-5.800782-18.183593-23.523438-31.457031-44.4375-31.457031-20.832032 0-38.5 13.179688-44.351563 31.269531-33.957031 4.636719-51.15625 13.894531-51.15625 27.558594 0 16.339844 24.527344 22.195313 32.589844 24.117187.53125.128907 1.085937.246094 1.628906.371094-.386719 2.824219-.597656 5.675782-.597656 8.546875 0 16.285157 6.320313 31.113281 16.625 42.183594-16.132813 2.082031-29.035156 13.199219-35.121094 30.625l-25.730469 73.621094c-3.78125 10.804687-2.496093 21.875 3.535157 30.371093 5.597656 7.894532 14.6875 12.605469 24.3125 12.605469h.003906c5.800781 0 11.296875-1.609375 16.261719-4.628906v95.933594c0 24.09375 18.726562 36.699219 37.230468 36.699219 10.492188 0 21.402344-4.015626 29.023438-11.71875 7.292969 7.242187 17.835938 11.394531 28.976562 11.394531 9.957032 0 20.328126-3.511719 27.59375-10.898438h60.445313v18.507813c0 15.679687 12.753906 28.441406 28.433594 28.441406h123.722656c15.675781 0 28.433594-12.761719 28.433594-28.441406v-18.507813h53.683593c5.570313 0 10.085938-4.515625 10.085938-10.082031v-118.15625h1.683594c20.09375 0 36.441406-14.894531 36.441406-33.203125 0-17.761719-15.417969-32.308594-34.710938-33.132813zm-89.207031-159.5625c21.683594 0 39.324219 17.648438 39.324219 39.339844 0 21.695313-17.640625 39.34375-39.324219 39.34375-21.667969 0-39.292969-17.648437-39.292969-39.34375 0-21.691406 17.625-39.339844 39.292969-39.339844zm-69.410156 156.949219c0-32.035156 26.050781-58.097656 58.070313-58.097656h1.226562l-.085938 31.476563c-.011718 5.570312 4.488282 10.097656 10.058594 10.113281h.027344c5.558594 0 10.070312-4.5 10.085938-10.058594l.085937-31.53125h.96875c32.023437 0 58.070313 26.0625 58.070313 58.097656 0 .851563-.019532 1.710938-.058594 2.574219h-138.394532c-.039062-.855469-.054687-1.710938-.054687-2.574219zm-210.425781-180.695312c12.933594 0 23.714844 8.648437 25.878906 19.984375-8.898438.902344-18.65625 1.386718-28.269531 1.386718-8.632813 0-16.695313-.40625-23.5-1.164062 2.0625-11.449219 12.886719-20.207031 25.890625-20.207031zm-72.140625 38.691406c4.394531-2.070313 12.675781-4.832031 26.464843-7.003906 1.039063 3.621093 4.027344 6.410156 7.800782 7.128906 11.804687 2.25 25.8125 2.722656 35.484375 2.722656 13.800781 0 27.949219-.9375 39.839843-2.644531 3.902344-.5625 7.0625-3.328125 8.199219-7.011719 13.074219 2.144531 21.003907 4.804688 25.265625 6.808594-9.445312 4.394531-34.109375 10.121094-71.515625 10.121094-37.417969 0-62.089843-5.726563-71.539062-10.121094zm71.542969 30.289063c14.9375 0 29.34375-.902344 42.175781-2.589844.222656 1.753906.335937 3.527344.335937 5.304687 0 23.058594-18.75 41.820313-41.800781 41.820313-23.066406 0-41.828125-18.761719-41.828125-41.820313 0-1.71875.101562-3.429687.308594-5.125 12.484375 1.574219 26.398437 2.410157 40.808594 2.410157zm-77.664063 171.953124c-3.101563 0-6.042969-1.535156-7.867187-4.105468-2.226563-3.140625-2.5625-7.417969-.945313-12.042969l25.730469-73.628906c3.9375-11.265625 11.636718-17.46875 21.679687-17.46875h79.5c10.480469 0 13.21875 3.175781 18.671875 9.503906 7.488282 8.695313 17.75 20.601563 48.46875 20.601563.433594 0 .875 0 1.3125-.007813h.347656c5.515626 0 9.835938 1.300781 12.492188 3.757813 2.515625 2.332031 2.890625 5.167968 2.890625 6.648437 0 3.371094-2.042969 9.078125-9.703125 9.078125h-53.910156c-5.566406 0-10.082032 4.515625-10.082032 10.082031v50.375h-92.152343v-17.195312c0-4.917969-3.554688-9.121094-8.40625-9.941407-.566407-.097656-1.128907-.144531-1.6875-.144531-4.226563 0-8.085938 2.664063-9.519531 6.769531-3.863282 11.097657-10.152344 17.71875-16.820313 17.71875zm96.652344 122.0625c-2.730469-2.75-4.097657-6.285156-4.058594-10.5 0-.015624-.003906-.03125-.003906-.042968 0-.015625.003906-.03125.003906-.042969v-60.574219c0-5.570312-4.515625-10.085937-10.085937-10.085937-5.570313 0-10.085938 4.515625-10.085938 10.085937v60.480469c-.167969 13.144531-12.453125 16.621094-18.929688 16.621094-2.847656 0-17.0625-.796875-17.0625-16.527344v-88.515625h92.152344v88.515625c0 4.09375-.972656 7.15625-2.46875 9.449219-.125.171875-.246094.34375-.359375.523437-4.078125 5.640625-11.429687 6.230469-14.261719 6.230469-5.804687 0-11.355468-2.097656-14.839843-5.617188zm218.394531-65.253906h-50.410156v-9.925781c0-.160156.1875-.347656.34375-.347656h49.695312c.191406 0 .371094.195312.371094.347656zm36.640625 20.167969c4.480469 0 8.261719 3.789063 8.261719 8.273437v3.199219h-140.246094v-3.199219c0-4.484374 3.785156-8.273437 8.265625-8.273437zm8.265625 78.480469c0 4.484375-3.785156 8.273437-8.265625 8.273437h-123.71875c-4.480469 0-8.265625-3.789062-8.265625-8.273437v-46.839844h140.25zm85.621094-166.917969h-121.582032c-5.570312 0-10.085937 4.515625-10.085937 10.085937 0 5.570313 4.515625 10.085938 10.085937 10.085938h99.726563v108.070312h-43.597656v-31.53125c0-15.683593-12.757813-28.441406-28.433594-28.441406h-16.472656v-9.925781c0-11.3125-9.214844-20.515625-20.539063-20.515625h-49.695312c-11.3125 0-20.511719 9.203125-20.511719 20.515625v9.925781h-16.5c-15.679687 0-28.4375 12.757813-28.4375 28.441406v31.53125h-51.097656c.203125-1.699218.320312-3.460937.320312-5.304687v-102.765625h94.972657c5.570312 0 10.085937-4.515625 10.085937-10.085938 0-5.570312-4.515625-10.085937-10.085937-10.085937h-94.972657v-26.035156h296.820313c8.820312 0 16.273437 5.953125 16.273437 13.003906 0 7.0625-7.453125 13.03125-16.273437 13.03125zm0 0"/><path d="m314.027344 250.140625h-.167969c-5.570313 0-10.085937 4.515625-10.085937 10.085937 0 5.570313 4.515624 10.085938 10.085937 10.085938h.167969c5.570312 0 10.085937-4.515625 10.085937-10.085938 0-5.570312-4.515625-10.085937-10.085937-10.085937zm0 0"/></svg>