<svg id="Icon_Set" enable-background="new 0 0 256 256" height="512" viewBox="0 0 256 256" width="512" xmlns="http://www.w3.org/2000/svg"><path d="m193.967 78.609-16.24 64.7c-1.94 7.95 2.94 15.96 10.89 17.9 7.95 1.93 15.97-2.94 17.9-10.9l17.36-69.28z" fill="#3193f3"/><path d="m185.003 94.751c-6.042-1.758-12.361 1.737-14.084 7.789-1.69 5.939 1.678 12.139 7.581 13.953l5.532 1.695 5.553-22.122z" fill="#ff4a73"/><path d="m199.617 159.589c-3.2 1.88-7.11 2.56-11 1.62-7.95-1.94-12.83-9.95-10.89-17.9l16.24-64.7 14.7 1.19-15.94 63.51c-1.59 6.51 1.39 13.06 6.89 16.28z" fill="#35b1fc"/><path id="XMLID_201_" d="m127.586 199.813v19.602c0 3.447-1.962 6.606-5.076 8.1-2.718 1.305-5.526 2.448-8.424 3.429-19.647 6.723-42.777 6.246-61.245-.009-2.934-.999-5.76-2.142-8.424-3.42-3.114-1.494-5.076-4.653-5.076-8.1v-19.602z" fill="#ff4a73"/><path id="XMLID_200_" d="m52.841 199.813v31.122c-2.934-.999-5.76-2.142-8.424-3.42-3.114-1.494-5.076-4.653-5.076-8.1v-19.602z" fill="#f973a3"/><path id="XMLID_199_" d="m127.586 199.813v19.602c0 3.447-1.962 6.606-5.076 8.1-2.718 1.305-5.526 2.448-8.424 3.429v-31.131z" fill="#ea2a6a"/><path id="XMLID_198_" d="m14.113 90.67c-3.339-.882-6.39 2.169-5.508 5.508 8.476 31.93 6.962 21.9 15.261 53.149l36.577-46.586c-23.28-6.175-14.75-3.689-46.33-12.071z" fill="#ffbb98"/><path id="XMLID_197_" d="m152.822 90.67c-31.579 8.382-23.096 5.874-46.375 12.049l36.616 46.537c8.299-31.249 6.791-21.148 15.267-53.078.882-3.339-2.169-6.39-5.508-5.508z" fill="#ffbb98"/><path id="XMLID_196_" d="m143.768 158.485c0 3.816-.351 7.551-1.035 11.169-5.239 28-29.818 49.131-59.265 49.131-33.294 0-60.3-26.989-60.3-60.3 0-32.328 25.871-60.3 60.714-60.3 33.881.499 59.217 27.355 59.868 59.022.018.423.018.855.018 1.278z" fill="#ffbb98"/><circle id="XMLID_195_" cx="83.468" cy="237.814" fill="#f9d335" r="13.157"/><path id="XMLID_194_" d="m86.979 173.004c-1.801 2.248-5.221 2.248-7.023 0l-4.063-5.069-1.712-2.136c-2.361-2.946-.264-7.314 3.511-7.314h5.774 5.774c3.775 0 5.872 4.368 3.511 7.314l-1.712 2.136z" fill="#c98585"/><path id="XMLID_193_" d="m90.218 249.107c-1.971 1.179-4.284 1.863-6.75 1.863-7.263 0-13.158-5.886-13.158-13.158 0-7.263 5.895-13.158 13.158-13.158 2.466 0 4.779.684 6.75 1.863-3.834 2.295-6.408 6.498-6.408 11.295 0 4.806 2.574 9 6.408 11.295z" fill="#f9e27d"/><path d="m90.254 218.408c-2.223.252-4.491.378-6.786.378-33.291 0-60.3-26.991-60.3-60.3 0-32.328 25.875-60.3 60.714-60.3 2.151.036 4.266.171 6.345.405-31.167 3.519-53.559 29.826-53.559 59.895 0 31.041 23.454 56.592 53.586 59.922z" fill="#ffcaa6"/><path d="m143.768 158.486c0 3.816-.351 7.551-1.035 11.169-5.238 27.999-29.817 49.131-59.265 49.131-2.268 0-4.5-.126-6.696-.378 26.37-2.97 47.628-22.941 52.461-48.753.684-3.618 1.035-7.353 1.035-11.169 0-.423 0-.855-.018-1.278-.603-29.664-22.86-55.098-53.523-58.617 2.34-.27 4.725-.405 7.155-.405 33.885.495 59.22 27.351 59.868 59.022.018.423.018.855.018 1.278z" fill="#ffaa80"/><path id="XMLID_192_" d="m143.768 158.485c0 3.816-.351 7.551-1.035 11.169-.9.054-1.809.072-2.718.072-31.905 0-57.78-25.866-57.78-57.789 0-4.734.567-9.342 1.647-13.752 33.881.499 59.217 27.355 59.868 59.022.018.423.018.855.018 1.278z" fill="#c98585"/><path d="m83.882 98.186c-.126.522-.243 1.044-.36 1.566 31.399 7.203 51.28 37.66 45.873 69.003 3.438.639 6.993.972 10.62.972.909 0 1.818-.018 2.718-.072 6.846-36.211-20.252-70.905-58.851-71.469z" fill="#965959"/><path d="m109.04 66.717-37.054 7.398c-3.093.618-5.979-1.749-5.979-4.903v-48.052c0-3.155 2.886-5.521 5.98-4.903l37.053 7.406z" fill="#ff4a73"/><path d="m213.449 5.168c-6.611-.412-12.901.782-18.521 3.228-12.201 5.31-25.019 9.069-38.257 10.417l-47.631 4.85v43.033l49.735 5.047c12.357 1.254 24.309 4.834 35.625 9.955 5.027 2.275 10.607 3.543 16.484 3.543 22.653 0 40.917-18.795 40.047-41.642-.777-20.392-17.114-37.16-37.482-38.431z" fill="#5fcdff"/><path d="m81.007 69.209c0 1.1.35 2.1.94 2.92l-9.96 1.99c-3.09.61-5.98-1.75-5.98-4.91v-48.05c0-3.15 2.89-5.52 5.98-4.9l9.96 1.99c-.59.81-.94 1.81-.94 2.91z" fill="#f973a3"/><path d="m210.887 85.239c-2.57 0-5.08-.24-7.5-.71 19.04-3.6 33.31-20.67 32.54-40.93-.71-18.71-14.53-34.38-32.54-37.8 3.23-.62 6.6-.84 10.06-.63 20.37 1.27 36.71 18.04 37.48 38.43.87 22.85-17.39 41.64-40.04 41.64z" fill="#30b6ff"/><path d="m124.037 22.129v46.09l-15-1.52v-43.04z" fill="#73d7f9"/><g fill="#5f266d"><path d="m111.314 173.514c-2.209 0-4 1.791-4 4 0 5.427-4.415 9.842-9.843 9.842-5.4 0-9.794-4.371-9.839-9.761.938-.52 1.775-1.228 2.464-2.086l5.78-7.21c2.06-2.57 2.46-6.02 1.03-8.99-1.43-2.98-4.37-4.82-7.66-4.82h-11.55c-3.3 0-6.24 1.84-7.67 4.82-1.42 2.97-1.03 6.42 1.03 8.99l5.78 7.21c.689.859 1.527 1.567 2.465 2.087-.045 5.389-4.439 9.76-9.838 9.76-5.428 0-9.843-4.415-9.843-9.842 0-2.209-1.791-4-4-4s-4 1.791-4 4c0 9.838 8.004 17.842 17.843 17.842 5.678 0 10.733-2.675 14.003-6.821 10.462 13.264 31.847 5.854 31.847-11.021.001-2.209-1.79-4-3.999-4zm-27.457-3.015c-.197.256-.583.256-.78 0l-5.77-7.2c-.263-.307-.059-.81.39-.81h11.55c.414 0 .65.445.39.81z"/><path d="m62.441 143.131c.729.564 1.592.838 2.447.838 1.194 0 2.377-.533 3.165-1.55 1.353-1.746 1.034-4.259-.712-5.612-11.415-8.843-22.168-3.677-26.259.291-1.586 1.538-1.624 4.071-.086 5.656 1.539 1.586 4.07 1.623 5.656.086.28-.27 6.945-6.561 15.789.291z"/><path d="m104.83 142.84c.279-.271 6.944-6.562 15.788.291.729.564 1.592.838 2.447.838 3.793 0 5.466-4.827 2.453-7.162-11.415-8.843-22.168-3.677-26.259.291-1.586 1.538-1.624 4.071-.086 5.656 1.539 1.586 4.071 1.623 5.657.086z"/><path d="m165.803 150.075c-.47-2.159-2.605-3.526-4.759-3.058l-13.837 3.012c-.013-.222-.042-.323-.072-.511 8.021-30.131 6.645-20.612 15.062-52.317 1.666-6.303-4.085-12.062-10.4-10.396-30.931 8.207-23.318 5.947-45.093 11.713-13.648-5.339-29.567-5.875-44.147-.849-.093 0-2.284.833-2.37.866-21.748-5.761-14.051-3.504-45.052-11.732-6.296-1.666-12.065 4.081-10.396 10.401 4.288 16.156 6.064 21.728 7.783 27.116 1.632 5.119 3.32 10.416 7.266 25.239-.005.029-.057.433-.061.469l-13.835-3.011c-2.153-.467-4.289.899-4.759 3.058-.47 2.159.898 4.289 3.058 4.759l14.977 3.26c0 6.441.748 11.288 2.061 16.539l-16.835 2.765c-4.827.794-4.231 7.948.644 7.948.538 0 18.179-2.932 18.71-3.019 2.823 6.776 6.292 12.813 11.601 18.812v18.27c0 4.97 2.88 9.57 7.34 11.72 7.19 3.45 15.24 5.87 23.63 7.24.29 9.21 7.87 16.6 17.15 16.6s16.86-7.39 17.15-16.6c8.39-1.37 16.44-3.79 23.63-7.24 4.46-2.15 7.34-6.75 7.34-11.72v-18.26c4.98-5.62 8.88-11.93 11.62-18.819.532.087 18.154 3.016 18.693 3.016 4.87 0 5.473-7.154.644-7.948l-16.827-2.764c1.809-6.782 2.196-14.463 2.042-16.538l14.988-3.262c2.155-.47 3.523-2.601 3.054-4.759zm-141.917-15.835c-1.635-5.74-2.7-9.081-3.742-12.35-1.689-5.296-3.435-10.772-7.672-26.733-.102-.381.25-.722.614-.62 25.833 6.856 24.761 6.425 36.263 9.421-11.805 7.378-20.514 18.002-25.463 30.282.001-.001 0 0 0 0zm44.031 96.329c-7.73-1.26-15.14-3.48-21.76-6.66-1.71-.82-2.81-2.58-2.81-4.5v-10.69c9.43 7.56 20.72 12.26 32.68 13.64-3.56 1.72-6.44 4.63-8.11 8.21zm24.57 8.82c-.74 4.3-4.51 7.58-9.02 7.58-5.066 0-9.16-4.125-9.16-9.15 0-5.057 4.139-9.16 9.16-9.16 5.65 0 10.007 5.136 9.02 10.73zm31.1-19.98c0 1.92-1.1 3.68-2.8 4.5-6.63 3.18-14.04 5.41-21.77 6.66-1.67-3.58-4.55-6.49-8.11-8.21 11.96-1.38 23.25-6.08 32.68-13.63zm14.209-46.076-15.773-2.591c-2.177-.358-4.237 1.118-4.596 3.299-.357 2.18 1.119 4.237 3.299 4.596l14.363 2.359c-19 43.429-83.05 46.258-103.219-.003l14.342-2.356c2.18-.358 3.656-2.416 3.299-4.596-.358-2.18-2.415-3.651-4.596-3.299l-15.757 2.588s0-.001 0-.002c-1.2-4.379-1.87-8.908-1.96-13.487l17.515 3.812c.286.062.572.092.854.092 1.841 0 3.497-1.278 3.904-3.15.47-2.159-.898-4.289-3.058-4.759l-18.836-4.1c2.292-19.324 14.695-36.015 31.79-44.138 0 0 .001 0 .001-.001v12.288c0 2.209 1.791 4 4 4s4-1.791 4-4v-15.367c5.417-1.62 11.025-2.2 12.261-2.2v27.367c0 2.209 1.791 4 4 4s4-1.791 4-4v-27.346c5.42.4 11.191 1.806 11.939 2.18v15.367c0 2.209 1.791 4 4 4s4-1.791 4-4v-12.296c17.819 8.463 29.717 25.735 31.798 44.145l-18.843 4.101c-2.159.47-3.527 2.601-3.058 4.759.407 1.872 2.063 3.15 3.904 3.15.282 0 .568-.03.854-.092l17.522-3.814c-.111 5.156-.812 8.945-1.949 13.494zm5.233-39.1c-5.444-13.065-14.505-23.375-25.492-30.285-.002-.001-.004-.003-.007-.004 11.562-3.005 10.433-2.54 36.313-9.407.388-.099.719.251.62.615-6.824 25.705-7.119 23.947-11.434 39.081z"/><path d="m254.927 43.449c-1.153-29.928-32.577-51.354-61.59-38.72-23.604 10.266-34.141 9.801-84.08 14.9l-36.49-7.29c-5.499-1.12-10.76 3.091-10.76 8.82v48.05c0 5.777 5.31 9.937 10.76 8.83l36.53-7.29 49.08 4.97c16.451 1.67 28.812 7.411 29.812 7.661l-1.848 7.595c-8.765-2.549-17.018 2.561-19.27 10.47-2.269 7.972 2.331 16.438 10.254 18.872l1.747.537-5.232 21.507c-3.952 16.199 13.755 29.229 28.063 20.524 4.297-2.614 7.315-6.746 8.5-11.63l15.746-64.703c16.793-6.107 29.544-22.922 28.778-43.103zm-149.89 19.99-33.83 6.75c-.643.132-1.2-.361-1.2-.98v-48.05c0-.567.454-1.073 1.2-.98l33.83 6.76zm78.848 35.153.563.164-3.481 14.311c-11.637-3.576-5.79-17.013 2.918-14.475zm18.744 50.775c-.681 2.808-2.415 5.182-4.884 6.684-8.199 4.987-18.409-2.46-16.132-11.796l14.042-57.726c1.736.434 8.459 3.83 21.72 2.239zm-8.192-72.028c-21.952-9.615-31.778-9.227-81.4-14.26v-35.8c46.39-4.729 58.601-4.386 83.49-15.21 23.642-10.288 49.467 7.074 50.41 31.68 1.043 27.97-28.204 45.777-52.5 33.59z"/><path d="m214.397 63.999c-.86 0-1.74-.04-2.59-.1-2.21-.15-4.12 1.51-4.28 3.71-.15 2.2 1.51 4.12 3.71 4.27 1.05.08 2.11.12 3.16.12 2.21 0 4-1.8 4-4 0-2.21-1.79-4-4-4z"/><path d="m198.727 60.429c-6.81-3.03-13.69-5.43-20.44-7.14-5.146-1.293-7.075 6.462-1.97 7.75 6.32 1.6 12.76 3.85 19.16 6.7 2 .906 4.384-.008 5.28-2.03.9-2.02-.01-4.38-2.03-5.28z"/><path d="m192.235 140.814c-3.268 0-5.918 2.649-5.918 5.918s2.649 5.918 5.918 5.918c3.268 0 5.918-2.649 5.918-5.918s-2.65-5.918-5.918-5.918z"/><path d="m15.377 24.208c7.469 0 10.971 1.673 15.026 3.609 4.309 2.058 9.192 4.391 18.474 4.391 2.209 0 4-1.791 4-4s-1.791-4-4-4c-7.469 0-10.971-1.673-15.026-3.609-4.309-2.058-9.192-4.391-18.474-4.391-2.209 0-4 1.791-4 4s1.791 4 4 4z"/><path d="m15.377 45.165c7.469 0 10.971 1.673 15.026 3.609 4.309 2.058 9.192 4.391 18.474 4.391 2.209 0 4-1.791 4-4s-1.791-4-4-4c-7.469 0-10.971-1.673-15.026-3.609-4.309-2.058-9.192-4.391-18.474-4.391-2.209 0-4 1.791-4 4s1.791 4 4 4z"/><path d="m15.377 66.122c15.462 0 15.743 8 33.5 8 2.209 0 4-1.791 4-4s-1.791-4-4-4c-7.469 0-10.971-1.673-15.026-3.609-4.309-2.058-9.192-4.391-18.474-4.391-2.209 0-4 1.791-4 4s1.791 4 4 4z"/></g></svg>