<svg height="512pt" viewBox="-9 0 512 512.00048" width="512pt" xmlns="http://www.w3.org/2000/svg"><path d="m333.929688 484.007812h-181.53125c-4.234376 0-7.667969-3.433593-7.667969-7.667968 0-4.238282 3.433593-7.671875 7.667969-7.671875h181.53125c4.234374 0 7.667968 3.433593 7.667968 7.671875 0 4.234375-3.433594 7.667968-7.667968 7.667968zm0 0" fill="#666"/><g fill-rule="evenodd"><path d="m390.9375 458.820312-44.3125-58.449218-43.277344-16.742188-18.417968 37.425782 41.898437 55.285156 14.960937 19.734375c29.492188 38.917969 76.394532-1.296875 49.148438-37.253907zm0 0" fill="#e6e6e6"/><path d="m390.9375 458.820312-44.3125-58.449218c-6.359375 3.25-12.921875 6.214844-19.625 8.859375-3.050781 1.179687-6.128906 2.332031-9.265625 3.394531l68.164063 94.207031c13.238281-9.175781 19.308593-29.167969 5.039062-48.011719zm0 0" fill="#c2c7cc"/><path d="m95.070312 458.820312 44.316407-58.449218 46.757812-7.910156 14.933594 28.5625-41.894531 55.316406-14.964844 19.703125c-29.492188 38.949219-76.398438-1.292969-49.148438-37.222657zm0 0" fill="#e6e6e6"/><path d="m95.070312 458.820312 44.316407-58.449218c6.359375 3.25 12.917969 6.214844 19.621093 8.832031 3.050782 1.207031 6.128907 2.359375 9.265626 3.421875l-68.167969 94.207031c-13.234375-9.175781-19.304688-29.199219-5.035157-48.011719zm0 0" fill="#c2c7cc"/><path d="m410.589844 137.976562h-120.421875c-12.808594 0-23.28125 10.472657-23.28125 23.273438v18.496094c0 12.796875 10.472656 23.269531 23.28125 23.269531l64.167969 34.402344 56.253906-34.402344c12.777344 0 23.25-10.46875 23.25-23.269531v-18.496094c0-12.800781-10.472656-23.273438-23.25-23.273438zm0 0" fill="#f78411"/><path d="m433.839844 161.246094c0-12.796875-10.472656-23.269532-23.25-23.269532h-40.949219c12.777344 0 23.25 10.46875 23.25 23.269532v18.496094c0 12.800781-10.472656 23.273437-23.25 23.273437h40.949219c12.773437 0 23.25-10.472656 23.25-23.273437zm0 0" fill="#f74311"/><path d="m202.863281 138.003906h-120.453125c-12.773437 0-23.25 10.472656-23.25 23.242188v18.496094c0 12.800781 10.476563 23.273437 23.25 23.273437l64.199219 34.402344 56.253906-34.402344c12.777344 0 23.25-10.472656 23.25-23.273437v-18.496094c0-12.769532-10.472656-23.242188-23.25-23.242188zm0 0" fill="#f78411"/><path d="m226.113281 161.246094c0-12.769532-10.472656-23.242188-23.25-23.242188h-40.976562c12.804687 0 23.28125 10.472656 23.28125 23.242188v18.496094c0 12.800781-10.476563 23.273437-23.28125 23.273437h40.976562c12.777344 0 23.25-10.472656 23.25-23.273437zm0 0" fill="#f74311"/></g><path d="m110.101562 108.628906c-2 0-3.996093-.777344-5.5-2.324218-2.953124-3.035157-2.882812-7.894532.152344-10.847657 7.015625-6.824219 5.613282-9.558593 1.867188-16.871093-4.238282-8.265626-10.636719-20.757813 5.765625-36.175782 3.085937-2.902344 7.941406-2.75 10.839843.339844 2.898438 3.085938 2.746094 7.941406-.335937 10.839844-7.996094 7.511718-6.421875 10.582031-2.625 18 4.109375 8.019531 10.320313 20.136718-4.820313 34.867187-1.488281 1.449219-3.417968 2.171875-5.34375 2.171875zm0 0" fill="#666"/><path d="m151.792969 68.296875c-1.996094 0-3.988281-.773437-5.492188-2.320313-2.957031-3.03125-2.890625-7.890624.144531-10.84375 7.003907-6.824218 5.601563-9.558593 1.859376-16.875-4.234376-8.265624-10.628907-20.757812 5.777343-36.175781 3.085938-2.902343 7.9375-2.75 10.839844.335938 2.898437 3.089843 2.746094 7.945312-.339844 10.84375-7.996093 7.515625-6.425781 10.585937-2.628906 18.003906 4.105469 8.019531 10.304687 20.132813-4.8125 34.859375-1.488281 1.449219-3.417969 2.171875-5.347656 2.171875zm0 0" fill="#666"/><path d="m462.988281 250.449219h-439.277343c-.203126 0-.433594-.03125-.632813-.03125 12.71875 55 45.234375 102.492187 89.75 133.875 17.003906 11.992187 35.765625 21.628906 55.820313 28.449219 22.1875 7.535156 45.925781 11.621093 70.730468 11.621093h7.308594c13.035156 0 25.839844-1.152343 38.242188-3.308593 21.867187-3.855469 42.585937-10.902344 61.691406-20.683594 58.070312-29.714844 101.230468-84.511719 116.367187-149.921875zm0 0" fill="#808080" fill-rule="evenodd"/><path d="m23.710938 203.015625c-13.035157 0-23.710938 10.671875-23.710938 23.699219 0 12.832031 10.332031 23.359375 23.078125 23.703125.199219 0 .429687.03125.632813.03125h445.578124c13.035157 0 23.710938-10.675781 23.710938-23.734375 0-13.03125-10.675781-23.699219-23.710938-23.699219-148.535156 0-297.042968 0-445.578124 0zm0 0" fill="#e6e6e6" fill-rule="evenodd"/><path d="m23.078125 250.417969c.515625.03125.976563.03125 0 0zm439.910156.03125-439.910156-.03125c2.242187 9.722656 5.09375 19.214843 8.546875 28.421875h349.988281c22.703125 0 30.558594 5.175781 21.550781 29.023437-12.832031 34.027344-33.523437 64.144531-59.9375 88.019531-.632812.578126-1.265624 1.125-1.898437 1.699219-4.605469 4.054688-9.382813 7.96875-14.328125 11.648438 6.703125-2.644531 13.261719-5.609375 19.621094-8.859375 58.070312-29.714844 101.230468-84.511719 116.367187-149.921875zm0 0" fill="#666" fill-rule="evenodd"/><path d="m493 226.714844c0-13.03125-10.675781-23.699219-23.710938-23.699219h-46.210937c13.035156 0 23.710937 10.671875 23.710937 23.699219 0 12.972656-10.558593 23.617187-23.539062 23.703125l39.738281.03125h6.304688c13.03125 0 23.707031-10.671875 23.707031-23.734375zm0 0" fill="#c2c7cc" fill-rule="evenodd"/><path d="m315.257812 108.628906c-1.996093 0-3.992187-.777344-5.496093-2.320312-2.953125-3.035156-2.886719-7.890625.148437-10.847656 7.003906-6.824219 5.601563-9.558594 1.855469-16.875-4.230469-8.265626-10.625-20.757813 5.78125-36.175782 3.085937-2.902344 7.9375-2.75 10.835937.339844 2.902344 3.085938 2.75 7.941406-.335937 10.839844-8 7.515625-6.425781 10.585937-2.628906 18.003906 4.101562 8.019531 10.304687 20.132812-4.8125 34.859375-1.488281 1.453125-3.417969 2.175781-5.347657 2.175781zm0 0" fill="#666"/><path d="m356.925781 68.296875c-2 0-3.996093-.777344-5.5-2.324219-2.953125-3.035156-2.882812-7.890625.152344-10.84375 7.019531-6.828125 5.617187-9.566406 1.871094-16.882812-4.226563-8.261719-10.621094-20.75 5.761719-36.160156 3.082031-2.90625 7.933593-2.753907 10.835937.328124 2.902344 3.085938 2.753906 7.941407-.328125 10.84375-7.984375 7.511719-6.414062 10.582032-2.617188 18 4.105469 8.019532 10.308594 20.140626-4.832031 34.867188-1.492187 1.453125-3.417969 2.171875-5.34375 2.171875zm0 0" fill="#666"/></svg>