<svg height="512pt" viewBox="0 0 512 512" width="512pt" xmlns="http://www.w3.org/2000/svg"><path d="m52.964844 467.863281h88.277344v35.308594c0 4.875-3.953126 8.828125-8.828126 8.828125h-70.621093c-4.875 0-8.828125-3.953125-8.828125-8.828125zm0 0" fill="#2c2f38"/><path d="m370.757812 467.863281h88.277344v35.308594c0 4.875-3.953125 8.828125-8.828125 8.828125h-70.621093c-4.875 0-8.828126-3.953125-8.828126-8.828125zm0 0" fill="#2c2f38"/><path d="m17.65625 123.585938h476.6875v335.449218c0 9.75-7.902344 17.65625-17.652344 17.65625h-441.382812c-9.75 0-17.652344-7.90625-17.652344-17.65625zm0 0" fill="#556080"/><path d="m17.65625 114.757812h476.6875v44.140626h-476.6875zm0 0" fill="#35495e"/><path d="m8.828125 0h494.34375c4.875 0 8.828125 3.953125 8.828125 8.828125v105.929687c0 4.875-3.953125 8.828126-8.828125 8.828126h-494.34375c-4.875 0-8.828125-3.953126-8.828125-8.828126v-105.929687c0-4.875 3.953125-8.828125 8.828125-8.828125zm0 0" fill="#95a5a5"/><path d="m105.929688 61.792969c0 19.5-15.808594 35.308593-35.308594 35.308593s-35.3125-15.808593-35.3125-35.308593 15.8125-35.308594 35.3125-35.308594 35.308594 15.808594 35.308594 35.308594zm0 0" fill="#bdc3c7"/><path d="m79.449219 52.964844c0 9.75-7.90625 17.65625-17.65625 17.65625s-17.65625-7.90625-17.65625-17.65625 7.90625-17.65625 17.65625-17.65625 17.65625 7.90625 17.65625 17.65625zm0 0" fill="#ecf0f1"/><path d="m229.515625 61.792969c0 19.5-15.808594 35.308593-35.308594 35.308593s-35.308593-15.808593-35.308593-35.308593 15.808593-35.308594 35.308593-35.308594 35.308594 15.808594 35.308594 35.308594zm0 0" fill="#bdc3c7"/><path d="m203.035156 52.964844c0 9.75-7.90625 17.65625-17.65625 17.65625s-17.65625-7.90625-17.65625-17.65625 7.90625-17.65625 17.65625-17.65625 17.65625 7.90625 17.65625 17.65625zm0 0" fill="#ecf0f1"/><path d="m353.101562 61.792969c0 19.5-15.808593 35.308593-35.308593 35.308593s-35.308594-15.808593-35.308594-35.308593 15.808594-35.308594 35.308594-35.308594 35.308593 15.808594 35.308593 35.308594zm0 0" fill="#bdc3c7"/><path d="m326.621094 52.964844c0 9.75-7.90625 17.65625-17.65625 17.65625s-17.65625-7.90625-17.65625-17.65625 7.90625-17.65625 17.65625-17.65625 17.65625 7.90625 17.65625 17.65625zm0 0" fill="#ecf0f1"/><path d="m476.691406 61.792969c0 19.5-15.8125 35.308593-35.3125 35.308593s-35.308594-15.808593-35.308594-35.308593 15.808594-35.308594 35.308594-35.308594 35.3125 15.808594 35.3125 35.308594zm0 0" fill="#bdc3c7"/><path d="m450.207031 52.964844c0 9.75-7.90625 17.65625-17.65625 17.65625s-17.652343-7.90625-17.652343-17.65625 7.902343-17.65625 17.652343-17.65625 17.65625 7.90625 17.65625 17.65625zm0 0" fill="#ecf0f1"/><path d="m61.792969 194.207031h388.414062c4.875 0 8.828125 3.953125 8.828125 8.828125v229.515625c0 4.875-3.953125 8.828125-8.828125 8.828125h-388.414062c-4.875 0-8.828125-3.953125-8.828125-8.828125v-229.515625c0-4.875 3.953125-8.828125 8.828125-8.828125zm0 0" fill="#2fa8cc"/><path d="m61.792969 211.863281h388.414062c4.875 0 8.828125 3.949219 8.828125 8.828125v185.378906c0 4.875-3.953125 8.828126-8.828125 8.828126h-388.414062c-4.875 0-8.828125-3.953126-8.828125-8.828126v-185.378906c0-4.878906 3.953125-8.828125 8.828125-8.828125zm0 0" fill="#67b9cc"/><path d="m211.863281 247.171875c0 14.625-11.859375 26.484375-26.484375 26.484375s-26.480468-11.859375-26.480468-26.484375 11.855468-26.480469 26.480468-26.480469 26.484375 11.855469 26.484375 26.480469zm0 0" fill="#2c2f38"/><path d="m185.378906 238.34375c0 4.875-3.953125 8.828125-8.828125 8.828125s-8.828125-3.953125-8.828125-8.828125 3.953125-8.828125 8.828125-8.828125 8.828125 3.953125 8.828125 8.828125zm0 0" fill="#fff"/><path d="m353.101562 247.171875c0 14.625-11.855468 26.484375-26.480468 26.484375s-26.484375-11.859375-26.484375-26.484375 11.859375-26.480469 26.484375-26.480469 26.480468 11.855469 26.480468 26.480469zm0 0" fill="#2c2f38"/><path d="m326.621094 238.34375c0 4.875-3.953125 8.828125-8.828125 8.828125s-8.828125-3.953125-8.828125-8.828125 3.953125-8.828125 8.828125-8.828125 8.828125 3.953125 8.828125 8.828125zm0 0" fill="#fff"/><path d="m326.621094 323.679688c0 45.550781-31.664063 82.390624-70.621094 82.390624s-70.621094-36.839843-70.621094-82.390624c0-7.941407.988282-15.847657 2.941406-23.542969h135.359376c1.953124 7.695312 2.941406 15.601562 2.941406 23.542969zm0 0" fill="#2c3e50"/><path d="m301.019531 387.089844c-11.835937 12.136718-28.066406 18.980468-45.019531 18.980468s-33.183594-6.84375-45.019531-18.980468c9.621093-15.632813 26.664062-25.160156 45.019531-25.160156s35.398438 9.527343 45.019531 25.160156zm0 0" fill="#cc4b4c"/><path d="m326.621094 323.707031c0 .972657 0 1.941407-.089844 2.914063h-141.0625c-.089844-.972656-.089844-1.941406-.089844-2.914063 0-7.945312.980469-15.863281 2.914063-23.570312h135.414062c1.933594 7.707031 2.914063 15.625 2.914063 23.570312zm0 0" fill="#fff"/></svg>