<svg height="512pt" viewBox="0 0 512 512" width="512pt" xmlns="http://www.w3.org/2000/svg"><path d="m413.53125 229.488281c-2.058594 0-4.128906-.632812-5.914062-1.941406-4.449219-3.269531-5.40625-9.527344-2.136719-13.980469 9.957031-13.554687 15.21875-29.621094 15.21875-46.460937 0-16.839844-5.261719-32.90625-15.21875-46.460938-3.269531-4.453125-2.3125-10.710937 2.136719-13.980469 4.453124-3.265624 10.710937-2.3125 13.980468 2.140626 12.496094 17.015624 19.101563 37.171874 19.101563 58.300781 0 21.128906-6.605469 41.289062-19.101563 58.300781-1.960937 2.667969-4.992187 4.082031-8.066406 4.082031zm0 0"/><path d="m442.355469 251.125c-2.066407 0-4.15625-.640625-5.945313-1.96875-4.4375-3.285156-5.367187-9.550781-2.078125-13.984375 14.695313-19.828125 22.464844-43.363281 22.464844-68.066406s-7.765625-48.238281-22.464844-68.066407c-3.289062-4.4375-2.355469-10.699218 2.078125-13.988281 4.4375-3.289062 10.699219-2.359375 13.988282 2.078125 17.269531 23.296875 26.398437 50.953125 26.398437 79.976563 0 29.019531-9.128906 56.675781-26.398437 79.972656-1.960938 2.648437-4.980469 4.046875-8.042969 4.046875zm0 0"/><path d="m384.71875 207.859375c-2.019531 0-4.058594-.609375-5.824219-1.878906-4.484375-3.21875-5.511719-9.46875-2.289062-13.953125 5.234375-7.289063 8-15.90625 8-24.921875s-2.765625-17.632813-8-24.921875c-3.222657-4.488282-2.195313-10.734375 2.289062-13.957032 4.488281-3.21875 10.734375-2.191406 13.953125 2.292969 7.691406 10.710938 11.757813 23.363281 11.757813 36.585938 0 13.222656-4.066407 25.875-11.757813 36.585937-1.953125 2.71875-5.019531 4.167969-8.128906 4.167969zm0 0"/><path d="m98.425781 229.488281c-3.074219 0-6.105469-1.414062-8.066406-4.082031-12.496094-17.015625-19.101563-37.171875-19.101563-58.300781 0-21.128907 6.605469-41.289063 19.101563-58.300781 3.269531-4.453126 9.527344-5.410157 13.976563-2.140626 4.453124 3.269532 5.410156 9.527344 2.140624 13.976563-9.957031 13.558594-15.222656 29.625-15.222656 46.464844 0 16.835937 5.265625 32.902343 15.222656 46.460937 3.269532 4.449219 2.3125 10.707032-2.140624 13.976563-1.78125 1.3125-3.855469 1.945312-5.910157 1.945312zm0 0"/><path d="m69.597656 251.125c-3.058594 0-6.078125-1.398438-8.039062-4.046875-17.269532-23.296875-26.398438-50.953125-26.398438-79.972656 0-29.023438 9.128906-56.679688 26.398438-79.976563 3.285156-4.433594 9.550781-5.367187 13.988281-2.078125 4.433594 3.289063 5.367187 9.550781 2.078125 13.988281-14.699219 19.828126-22.464844 43.363282-22.464844 68.066407s7.765625 48.238281 22.464844 68.066406c3.285156 4.4375 2.355469 10.699219-2.082031 13.984375-1.789063 1.328125-3.875 1.96875-5.945313 1.96875zm0 0"/><path d="m127.238281 207.859375c-3.109375 0-6.175781-1.449219-8.128906-4.167969-7.691406-10.710937-11.757813-23.359375-11.757813-36.585937 0-13.222657 4.066407-25.875 11.757813-36.585938 3.21875-4.484375 9.464844-5.511719 13.953125-2.289062 4.484375 3.21875 5.511719 9.46875 2.289062 13.953125-5.234374 7.289062-8 15.90625-8 24.921875s2.765626 17.632812 8 24.921875c3.222657 4.484375 2.195313 10.734375-2.289062 13.957031-1.765625 1.265625-3.804688 1.875-5.824219 1.875zm0 0"/><path d="m318.398438 296.488281c5.253906 15.273438-11.929688 59.335938-10.941407 40.8125 4.0625-76.714843-96.363281-116.425781-83.359375-91.503906 17.839844 34.195313-35.398437 143.921875-30.996094 113.507813 2.191407-15.144532-7.285156-56.917969-9.890624-40.433594-1.039063 6.617187-23.011719 50.363281-28.757813 78.171875-7.324219 35.472656 4.339844 62.015625 48.921875 89.328125h.015625c.480469.304687.960937.609375 1.453125.898437 28.882812 17.625 64.621094 19.445313 95.046875 5.148438 1.925781-.910157 3.820313-1.871094 5.695313-2.910157 1.769531-.960937 2.832031-1.554687 2.933593-1.628906 112.292969-76.503906 3.175781-210.871094 9.878907-191.390625zm0 0" fill="#ffd89e"/><path d="m299.59375 492.417969c-30.425781 14.296875-66.167969 12.476562-95.050781-5.148438-7.171875-13.269531-6.730469-30.601562 4.933593-43.886719.761719-.871093 1.507813-1.730468 2.242188-2.59375 26.328125-30.792968 37.710938-44.136718 37.710938-89.621093 0 0 49.921874 41.308593 61.863281 104.058593 3.113281 16.34375-2.554688 28.691407-11.699219 37.191407zm0 0" fill="#f5737f"/><path d="m346.296875 315.132812c-4.28125-7.671874-9.015625-14.894531-13.328125-20.34375-3.863281-4.882812-10.332031-13.054687-18.71875-9.304687-2.132812.953125-4.910156 3.25-5.832031 6.96875-14-29.863281-41.292969-50.859375-62.085938-59.613281-14.253906-6.003906-24.335937-5.945313-29.96875.171875-1.960937 2.128906-5.996093 8.085937-1.132812 17.410156 4.867187 9.324219 2.707031 30.960937-5.769531 57.875-2.664063 8.453125-5.585938 16.3125-8.40625 23.144531-.042969-.230468-.085938-.445312-.121094-.636718-3.4375-18.027344-7.078125-24.488282-14.425782-25.601563-1.121093-.164063-10.96875-1.265625-13.144531 11.933594-.527343 2.035156-3.730469 9.546875-6.5625 16.183593-7.253906 16.988282-18.207031 42.664063-22.140625 61.699219-8.605468 41.679688 7.316406 71.515625 53.238282 99.722657.445312.394531.925781.753906 1.4375 1.0625 17.628906 10.757812 37.511718 16.195312 57.476562 16.195312.320312 0 .640625-.003906.960938-.003906 15.78125-.097656 31.605468-3.589844 46.398437-10.542969 2.246094-1.0625 9.683594-5.089844 10.132813-5.421875 35.816406-24.457031 54.386718-56.835938 55.199218-96.238281.746094-36.160157-14.222656-68.5625-23.207031-84.660157zm-52.429687 168.914063c-11.820313 5.300781-24.402344 7.933594-36.949219 7.945313-15.507813-.035157-30.949219-4.074219-44.804688-12.035157-3.539062-8.40625-3.882812-20 4.910157-30.015625.78125-.894531 1.546874-1.777344 2.292968-2.652344 22.058594-25.804687 35.046875-40.988281 38.894532-73.222656 14.851562 16.695313 36.230468 46.097656 43.261718 83.027344 2.039063 10.707031-.519531 19.765625-7.605468 26.953125zm55.585937-82.796875c-.921875 24.011719-10.089844 44.933594-27.316406 62.445312-.015625-3.375-.351563-6.828124-1.019531-10.339843-12.472657-65.535157-63.160157-108.109375-65.3125-109.890625-2.984376-2.46875-7.125-2.992188-10.632813-1.34375-3.503906 1.648437-5.738281 5.171875-5.738281 9.046875 0 41.820312-9.617188 53.066406-35.324219 83.132812-.714844.835938-1.4375 1.671875-2.144531 2.484375-7.125 8.113282-11.179688 17.945313-12.007813 28.074219-27.460937-22.175781-30.472656-42.726563-25.710937-65.796875 3.175781-15.375 11.992187-36.828125 18.78125-52.8125.460937 4.523438.597656 8.714844.179687 11.621094-.425781 2.929687-1.71875 11.855468 5.851563 15.597656 1.679687.832031 7.613281 3.074219 13.5-2.941406 6.808594-6.957032 18.191406-31.566406 25.914062-56.027344 6.242188-19.765625 12.046875-45.539062 7.78125-64.148438 8.019532 3.039063 20.34375 9.726563 32.484375 21.195313 13.980469 13.210937 30.320313 35.253906 28.730469 65.222656-.152344 2.914063-.566406 10.65625 6.304688 13.964844 3.917968 1.886719 8.460937 1.1875 11.855468-1.828125 4.136719-3.675781 8.824219-15.011719 11.503906-27.074219 10.78125 18.417969 23.523438 48.074219 22.320313 79.417969zm0 0"/><path d="m332.804688 10h-322.804688v41.269531h491.957031v-41.269531h-59.996093" fill="#eff3f3"/><path d="m307.140625 51.269531h-102.324219c-14.175781 0-25.664062-11.492187-25.664062-25.664062v-15.605469h153.652344v15.605469c0 14.171875-11.488282 25.664062-25.664063 25.664062zm0 0" fill="#00ccf2"/><path d="m286.007812 86.648438h-60.058593c-8.316407 0-15.0625-6.746094-15.0625-15.0625v-20.316407h90.183593v20.316407c0 8.316406-6.746093 15.0625-15.0625 15.0625zm0 0" fill="#b0e7f8"/><path d="m501.957031 0h-59.996093c-5.523438 0-10 4.476562-10 10s4.476562 10 10 10h49.996093v21.269531h-152.78125c2.324219-4.730469 3.628907-10.046875 3.628907-15.664062v-15.605469c0-5.523438-4.476563-10-10-10h-322.804688c-5.523438 0-10 4.476562-10 10v41.269531c0 5.523438 4.476562 10 10 10h190.890625v10.316407c0 13.816406 11.242187 25.058593 25.058594 25.058593h60.058593c13.816407 0 25.058594-11.242187 25.058594-25.058593v-10.316407h190.890625c5.523438 0 10-4.476562 10-10v-41.269531c0-5.523438-4.476562-10-10-10zm-179.152343 20v5.605469c0 8.636719-7.023438 15.664062-15.664063 15.664062h-102.324219c-8.640625 0-15.664062-7.027343-15.664062-15.664062v-5.605469zm-302.804688 0h149.152344v5.605469c0 5.613281 1.304687 10.933593 3.628906 15.664062h-152.78125zm271.070312 51.585938c0 2.789062-2.273437 5.0625-5.0625 5.0625h-60.058593c-2.789063 0-5.0625-2.273438-5.0625-5.0625v-10.316407h70.183593zm0 0"/><path d="m285.671875 169.640625c0 16.398437-13.292969 29.691406-29.695313 29.691406-16.398437 0-29.691406-13.292969-29.691406-29.691406 0-16.402344 29.691406-46.550781 29.691406-46.550781s29.695313 30.148437 29.695313 46.550781zm0 0" fill="#b0e7f8"/><path d="m255.976562 209.332031c-21.886718 0-39.691406-17.804687-39.691406-39.691406 0-19.507813 27.132813-48.042969 32.570313-53.566406 1.878906-1.90625 4.445312-2.984375 7.121093-2.984375 2.679688 0 5.246094 1.078125 7.125 2.984375 5.441407 5.523437 32.570313 34.058593 32.570313 53.566406 0 21.886719-17.808594 39.691406-39.695313 39.691406zm0-71.5c-10.441406 12.027344-19.691406 25.816407-19.691406 31.808594 0 10.859375 8.835938 19.695313 19.691406 19.695313 10.859376 0 19.695313-8.835938 19.695313-19.695313 0-5.992187-9.246094-19.777344-19.695313-31.808594zm0 0"/><path d="m394.96875 20c-.652344 0-1.3125-.070312-1.960938-.203125-.628906-.128906-1.261718-.320313-1.871093-.570313-.601563-.25-1.179688-.558593-1.71875-.917968-.550781-.359375-1.0625-.78125-1.523438-1.238282-.457031-.460937-.878906-.972656-1.246093-1.523437-.363282-.539063-.671876-1.117187-.921876-1.726563-.25-.601562-.441406-1.230468-.570312-1.871093s-.191406-1.300781-.191406-1.949219c0-2.628906 1.070312-5.210938 2.929687-7.070312.460938-.460938.972657-.878907 1.523438-1.238282.539062-.363281 1.117187-.671875 1.71875-.921875.609375-.25 1.242187-.441406 1.871093-.570312 3.25-.660157 6.707032.410156 9.027344 2.730469 1.859375 1.859374 2.929688 4.441406 2.929688 7.070312 0 .648438-.070313 1.308594-.199219 1.949219s-.320313 1.269531-.570313 1.871093c-.25.609376-.558593 1.1875-.917968 1.726563-.359375.550781-.78125 1.0625-1.242188 1.523437-1.859375 1.859376-4.4375 2.929688-7.066406 2.929688zm0 0"/></svg>