<svg height="512pt" viewBox="0 -43 512.001 512" width="512pt" xmlns="http://www.w3.org/2000/svg"><path d="m480.300781 114.992188h-12.015625v-48.417969h12.015625c13.371094 0 24.210938 10.835937 24.210938 24.207031s-10.839844 24.210938-24.210938 24.210938zm0 0" fill="#d2e7fa"/><path d="m504.511719 90.78125c0 3.246094-.640625 6.339844-1.808594 9.167969-3.601563-8.835938-12.277344-15.046875-22.402344-15.046875h-12.015625v-18.332032h12.015625c13.367188 0 24.210938 10.84375 24.210938 24.210938zm0 0" fill="#9dc8ff"/><path d="m127.386719 55.308594v297.371094c0 6.617187 5.363281 11.980468 11.980469 11.980468h47.789062v42.003906c0 6.617188 5.363281 11.984376 11.984375 11.984376h257.164063c6.617187 0 11.980468-5.363282 11.980468-11.984376v-351.355468c0-26.410156-21.410156-47.816406-47.816406-47.816406h-245.265625c-26.40625 0-47.816406 21.40625-47.816406 47.816406zm0 0" fill="#f95daa"/><path d="m166.515625 66.574219h25.140625v298.085937h-25.140625zm0 0" fill="#ea479d"/><path d="m468.285156 55.304688v351.355468c0 6.621094-5.371094 11.980469-11.980468 11.980469h-257.167969c-6.617188 0-11.980469-5.359375-11.980469-11.980469v-9.566406h247.460938c6.261718 0 11.324218-5.070312 11.324218-11.320312v-339.082032c0-16.765625-27.886718-31.402344-41.449218-39.203125h15.976562c26.410156 0 47.816406 21.410157 47.816406 47.816407zm0 0" fill="#ea479d"/><path d="m187.15625 246.328125h281.128906v98.496094h-281.128906zm0 0" fill="#d2e7fa"/><path d="m445.941406 246.328125h22.34375v98.496094h-22.34375zm0 0" fill="#9dc8ff"/><path d="m50.175781 66.574219h136.980469v48.417969h-136.980469zm0 0" fill="#d2e7fa"/><path d="m50.175781 66.574219h136.980469v18.15625h-136.980469zm0 0" fill="#9dc8ff"/><path d="m50.175781 66.574219h136.980469v18.15625h-136.980469zm0 0" fill="#9dc8ff"/><path d="m92.867188 90.78125c0 23.578125-19.113282 42.691406-42.691407 42.691406-23.574219 0-42.6875-19.113281-42.6875-42.691406 0-23.574219 19.113281-42.6875 42.6875-42.6875 23.578125 0 42.691407 19.113281 42.691407 42.6875zm0 0" fill="#5aa2ff"/><path d="m92.871094 90.78125c0 23.574219-19.121094 42.6875-42.695313 42.6875-15.808593 0-29.597656-8.589844-36.984375-21.347656 6.210938 3.515625 13.378906 5.53125 21.027344 5.53125 23.574219 0 42.683594-19.109375 42.683594-42.695313 0-7.765625-2.066406-15.046875-5.6875-21.316406 12.929687 7.328125 21.65625 21.214844 21.65625 37.140625zm0 0" fill="#006af8"/><path d="m480.300781 59.085938h-4.527343v-3.777344c0-30.496094-24.8125-55.308594-55.308594-55.308594h-42.402344c-4.132812 0-7.488281 3.351562-7.488281 7.492188 0 4.136718 3.355469 7.488281 7.488281 7.488281h42.402344c22.238281 0 40.332031 18.089843 40.332031 40.328125v106.503906c0 4.136719 3.351563 7.488281 7.488281 7.488281 4.136719 0 7.488282-3.351562 7.488282-7.488281v-39.332031h4.527343c17.480469 0 31.699219-14.21875 31.699219-31.699219 0-17.476562-14.21875-31.695312-31.699219-31.695312zm0 48.417968h-4.527343v-33.441406h4.527343c9.21875 0 16.722657 7.5 16.722657 16.71875 0 9.222656-7.5 16.722656-16.722657 16.722656zm0 0"/><path d="m468.285156 188.9375c-4.136718 0-7.488281 3.351562-7.488281 7.488281v42.414063h-266.152344v-174.019532c0-14.320312-11.648437-25.96875-25.964843-25.96875h-2.164063c-4.136719 0-7.488281 3.351563-7.488281 7.488282 0 4.136718 3.351562 7.492187 7.488281 7.492187h2.164063c3.957031 0 7.417968 2.109375 9.355468 5.253907h-43.160156v-3.777344c0-22.238282 18.089844-40.332032 40.328125-40.332032h167.664063c4.136718 0 7.488281-3.351562 7.488281-7.488281s-3.351563-7.488281-7.488281-7.488281h-167.664063c-30.496094 0-55.304687 24.8125-55.304687 55.308594v3.773437h-30.859376c-9.207031-11.269531-23.207031-18.480469-38.859374-18.480469-27.667969.003907-50.179688 22.515626-50.179688 50.179688 0 27.667969 22.511719 50.179688 50.175781 50.179688 15.65625 0 29.652344-7.210938 38.863281-18.480469h30.859376v230.199219c0 10.734374 8.734374 19.46875 19.46875 19.46875h40.300781v34.515624c0 10.734376 8.734375 19.46875 19.46875 19.46875h257.164062c10.738281 0 19.472657-8.734374 19.472657-19.46875v-210.238281c0-4.136719-3.351563-7.488281-7.488282-7.488281zm-418.109375-62.953125c-19.40625 0-35.199219-15.789063-35.199219-35.199219s15.792969-35.203125 35.199219-35.203125c19.410157 0 35.203125 15.792969 35.203125 35.203125 0 19.40625-15.792968 35.199219-35.203125 35.199219zm129.492188 120.34375v110.84375h-40.300781c-2.476563 0-4.492188-2.015625-4.492188-4.492187v-230.199219h44.792969zm0-171.367187v32.542968h-82.1875c1.855469-5.234375 2.875-10.859375 2.875-16.722656 0-5.859375-1.019531-11.488281-2.875-16.71875h82.1875zm281.128906 331.703124c0 2.480469-2.015625 4.496094-4.492187 4.496094h-257.164063c-2.480469 0-4.496094-2.019531-4.496094-4.496094v-54.347656h266.152344zm0-69.328124h-266.152344v-83.519532h266.152344zm0 0"/></svg>