<svg height="512pt" viewBox="0 -12 512 512" width="512pt" xmlns="http://www.w3.org/2000/svg"><path d="m128.300781 481.300781h-22.414062c-16.578125 0-30.019531-13.441406-30.019531-30.023437v-39.167969h82.453124v39.167969c0 16.582031-13.4375 30.023437-30.019531 30.023437zm0 0" fill="#6a829a"/><path d="m406.113281 481.300781h-22.414062c-16.582031 0-30.019531-13.441406-30.019531-30.023437v-39.167969h82.453124v39.167969c0 16.582031-13.441406 30.023437-30.019531 30.023437zm0 0" fill="#6a829a"/><path d="m442.84375 442.140625h-373.6875c-34.050781 0-61.65625-27.605469-61.65625-61.660156v-311.324219c0-34.050781 27.605469-61.65625 61.65625-61.65625h373.6875c34.050781 0 61.65625 27.605469 61.65625 61.65625v311.324219c0 34.054687-27.605469 61.660156-61.65625 61.660156zm0 0" fill="#a7b6c5"/><path d="m182.613281 7.5h-113.457031c-34.050781 0-61.65625 27.605469-61.65625 61.65625v311.324219c0 34.054687 27.605469 61.660156 61.65625 61.660156h39.796875c4.6875-8.304687 11.925781-18.082031 23.078125-28.964844 35.710938-34.847656 24.417969-84.246093 24.417969-84.246093s-39.730469-84.09375-39.355469-84.53125c-15.160156-53.714844-18.621094-110.078126-18.097656-154.347657.546875-45.765625 37.851562-82.550781 83.617187-82.550781zm0 0" fill="#889cb0"/><path d="m85.695312 391.214844c-15.0625 0-27.269531-12.207032-27.269531-27.269532v-278.25c0-15.0625 12.207031-27.269531 27.269531-27.269531h340.609376c15.0625 0 27.269531 12.207031 27.269531 27.269531v278.25c0 15.058594-12.207031 27.269532-27.269531 27.269532zm0 0" fill="#889cb0"/><path d="m105.609375 58.425781h-19.914063c-15.0625 0-27.269531 12.207031-27.269531 27.269531v278.25c0 15.058594 12.207031 27.269532 27.269531 27.269532h62.496094c15.515625-30.542969 8.257813-62.289063 8.257813-62.289063s-39.730469-84.089843-39.355469-84.527343c-15.160156-53.714844-18.621094-110.078126-18.097656-154.347657.136718-11.222656 2.476562-21.894531 6.613281-31.625zm0 0" fill="#6a829a"/><path d="m100.863281 243.191406 6.789063 72.113282c1.3125 13.9375 13.015625 24.585937 27.015625 24.585937 13.996093 0 25.699219-10.648437 27.011719-24.585937l6.789062-72.113282c1.875-19.917968-13.792969-37.132812-33.800781-37.132812-20.007813 0-35.679688 17.214844-33.804688 37.132812zm0 0" fill="#fcf5af"/><path d="m386.179688 358.179688h-116.183594c-14.972656 0-27.113282-12.140626-27.113282-27.113282v-116.179687c0-14.976563 12.140626-27.117188 27.113282-27.117188h116.183594c14.972656 0 27.113281 12.140625 27.113281 27.117188v116.179687c0 14.972656-12.140625 27.113282-27.113281 27.113282zm0 0" fill="#516980"/><g fill="#5ad6ff"><path d="m301.828125 261.347656h-16.480469c-6.625 0-11.996094-5.371094-11.996094-11.996094v-16.484374c0-6.625 5.371094-11.996094 11.996094-11.996094h16.480469c6.625 0 11.996094 5.371094 11.996094 11.996094v16.484374c0 6.625-5.371094 11.996094-11.996094 11.996094zm0 0"/><path d="m370.828125 261.347656h-16.480469c-6.625 0-11.996094-5.371094-11.996094-11.996094v-16.484374c0-6.625 5.371094-11.996094 11.996094-11.996094h16.480469c6.625 0 11.996094 5.371094 11.996094 11.996094v16.484374c0 6.625-5.371094 11.996094-11.996094 11.996094zm0 0"/><path d="m301.828125 325.078125h-16.480469c-6.625 0-11.996094-5.371094-11.996094-11.996094v-16.480469c0-6.625 5.371094-11.996093 11.996094-11.996093h16.480469c6.625 0 11.996094 5.371093 11.996094 11.996093v16.480469c0 6.625-5.371094 11.996094-11.996094 11.996094zm0 0"/><path d="m370.828125 325.078125h-16.480469c-6.625 0-11.996094-5.371094-11.996094-11.996094v-16.480469c0-6.625 5.371094-11.996093 11.996094-11.996093h16.480469c6.625 0 11.996094 5.371093 11.996094 11.996093v16.480469c0 6.625-5.371094 11.996094-11.996094 11.996094zm0 0"/></g><path d="m191.976562 136.449219c0-13.179688-13.417968-23.867188-29.972656-23.867188-16.554687 0-29.972656 10.6875-29.972656 23.867188 0 13.183593 13.417969 23.871093 29.972656 23.871093 16.554688 0 29.972656-10.6875 29.972656-23.871093zm0 0" fill="#fdb2db"/><path d="m379.96875 136.449219c0-13.179688-13.417969-23.867188-29.972656-23.867188-16.554688 0-29.972656 10.6875-29.972656 23.867188 0 13.183593 13.417968 23.871093 29.972656 23.871093 16.554687 0 29.972656-10.6875 29.972656-23.871093zm0 0" fill="#fdb2db"/><path d="m228.484375 123.152344c8.101563 6.28125 17.808594 9.421875 27.515625 9.421875s19.414062-3.140625 27.515625-9.421875c3.269531-2.539063 3.867187-7.25 1.328125-10.523438-2.539062-3.273437-7.25-3.867187-10.523438-1.332031-10.785156 8.367187-25.851562 8.367187-36.640624 0-3.273438-2.539063-7.984376-1.941406-10.523438 1.332031-2.539062 3.273438-1.941406 7.984375 1.328125 10.523438zm0 0"/><path d="m159.835938 120.339844c3.460937 2.273437 8.109374 1.308594 10.382812-2.152344 1.640625-2.496094 4.128906-2.765625 5.125-2.765625.992188 0 3.441406.300781 5.121094 2.765625 3.503906 5.144531 9.117187 2.984375 10.386718 2.152344 3.460938-2.277344 4.425782-6.925782 2.152344-10.386719-3.921875-5.96875-10.523437-9.53125-17.660156-9.53125-7.140625 0-13.742188 3.5625-17.660156 9.53125-2.273438 3.460937-1.3125 8.109375 2.152344 10.386719zm0 0"/><path d="m321.148438 120.339844c3.460937 2.273437 8.109374 1.308594 10.386718-2.152344 1.636719-2.496094 4.125-2.765625 5.121094-2.765625.992188 0 3.441406.300781 5.121094 2.765625 3.503906 5.144531 9.117187 2.984375 10.386718 2.152344 3.464844-2.277344 4.425782-6.925782 2.152344-10.386719-3.917968-5.96875-10.519531-9.53125-17.660156-9.53125s-13.742188 3.5625-17.660156 9.53125c-2.273438 3.460937-1.308594 8.109375 2.152344 10.386719zm0 0"/><path d="m442.84375 0h-33.46875c-4.140625 0-7.5 3.355469-7.5 7.5s3.359375 7.5 7.5 7.5h33.46875c29.863281 0 54.15625 24.296875 54.15625 54.15625v311.324219c0 29.863281-24.292969 54.15625-54.15625 54.15625h-373.6875c-29.863281.003906-54.15625-24.292969-54.15625-54.15625v-311.324219c0-29.859375 24.292969-54.15625 54.15625-54.15625h306.628906c4.140625 0 7.5-3.355469 7.5-7.5s-3.359375-7.5-7.5-7.5h-306.628906c-38.132812 0-69.15625 31.023438-69.15625 69.15625v311.324219c0 37.871093 30.597656 68.710937 68.367188 69.136719 0 0-.605469 39.183593 37.519531 39.183593h22.414062c38.804688 0 37.519531-39.164062 37.519531-39.164062h180.359376s-.476563 39.164062 37.519531 39.164062h22.414062c37.636719 0 37.519531-39.183593 37.519531-39.183593 37.769532-.425782 68.367188-31.265626 68.367188-69.136719v-311.324219c0-38.132812-31.023438-69.15625-69.15625-69.15625zm-314.542969 473.800781h-22.414062c-23.269531 0-22.519531-24.160156-22.519531-24.160156h67.453124s-.125 24.160156-22.519531 24.160156zm277.8125 0h-22.414062c-24.289063 0-22.519531-24.160156-22.519531-24.160156h67.453124s.078126 24.160156-22.519531 24.160156zm0 0"/><path d="m50.925781 85.695312v278.25c0 19.171876 15.597657 34.769532 34.769531 34.769532h340.609376c19.171874 0 34.769531-15.597656 34.769531-34.769532v-278.25c0-19.171874-15.597657-34.769531-34.769531-34.769531h-340.609376c-19.171874 0-34.769531 15.597657-34.769531 34.769531zm395.148438 0v278.25c0 10.898438-8.867188 19.769532-19.769531 19.769532h-340.609376c-10.902343 0-19.769531-8.867188-19.769531-19.769532v-278.25c0-10.902343 8.867188-19.769531 19.769531-19.769531h340.609376c10.902343 0 19.769531 8.867188 19.769531 19.769531zm0 0"/><path d="m97.171875 283.984375c.390625 4.121094 4.054687 7.152344 8.171875 6.761719 4.125-.386719 7.152344-4.046875 6.761719-8.167969l-3.773438-40.089844c-.707031-7.503906 1.699219-14.707031 6.773438-20.285156 5.078125-5.574219 12.023437-8.644531 19.5625-8.644531 7.539062 0 14.484375 3.070312 19.5625 8.644531 5.074219 5.578125 7.480469 12.78125 6.773437 20.285156l-6.789062 72.109375c-.957032 10.144532-9.359375 17.792969-19.546875 17.792969s-18.589844-7.648437-19.546875-17.792969c-.386719-4.121094-4.035156-7.144531-8.167969-6.761718-4.125.386718-7.152344 4.046874-6.765625 8.167968 1.683594 17.894532 16.507812 31.386719 34.480469 31.386719 17.972656 0 32.792969-13.492187 34.480469-31.386719l6.789062-72.109375c1.089844-11.589843-2.777344-23.175781-10.617188-31.789062-7.835937-8.609375-19.007812-13.546875-30.652343-13.546875s-22.816407 4.9375-30.652344 13.550781c-7.839844 8.609375-11.707031 20.195313-10.617187 31.785156zm0 0"/><path d="m235.382812 214.886719v116.179687c0 19.085938 15.527344 34.613282 34.613282 34.613282h116.183594c19.085937 0 34.613281-15.527344 34.613281-34.613282v-116.179687c0-19.085938-15.527344-34.617188-34.613281-34.617188h-116.183594c-19.085938 0-34.613282 15.53125-34.613282 34.617188zm170.410157 0v116.179687c0 10.816406-8.800781 19.613282-19.613281 19.613282h-116.183594c-10.8125 0-19.613282-8.796876-19.613282-19.613282v-116.179687c0-10.816407 8.800782-19.617188 19.613282-19.617188h116.183594c10.8125 0 19.613281 8.800781 19.613281 19.617188zm0 0"/><path d="m265.851562 249.351562c0 10.75 8.746094 19.496094 19.496094 19.496094h16.480469c10.75 0 19.496094-8.746094 19.496094-19.496094v-16.484374c0-10.75-8.746094-19.496094-19.496094-19.496094h-16.480469c-10.75 0-19.496094 8.746094-19.496094 19.496094zm15-16.484374c0-2.476563 2.015626-4.496094 4.496094-4.496094h16.480469c2.480469 0 4.496094 2.019531 4.496094 4.496094v16.484374c0 2.476563-2.015625 4.496094-4.496094 4.496094h-16.480469c-2.480468 0-4.496094-2.019531-4.496094-4.496094zm0 0"/><path d="m354.347656 268.847656h16.480469c10.75 0 19.496094-8.746094 19.496094-19.496094v-16.484374c0-10.75-8.746094-19.496094-19.496094-19.496094h-16.480469c-10.75 0-19.496094 8.746094-19.496094 19.496094v16.484374c0 10.75 8.746094 19.496094 19.496094 19.496094zm-4.496094-35.980468c0-2.476563 2.015626-4.496094 4.496094-4.496094h16.480469c2.480469 0 4.496094 2.019531 4.496094 4.496094v16.484374c0 2.476563-2.015625 4.496094-4.496094 4.496094h-16.480469c-2.480468 0-4.496094-2.019531-4.496094-4.496094zm0 0"/><path d="m301.828125 277.105469h-16.480469c-10.75 0-19.496094 8.746093-19.496094 19.496093v16.480469c0 10.75 8.746094 19.496094 19.496094 19.496094h16.480469c10.75 0 19.496094-8.746094 19.496094-19.496094v-16.480469c0-10.75-8.746094-19.496093-19.496094-19.496093zm4.496094 35.976562c0 2.480469-2.015625 4.496094-4.496094 4.496094h-16.480469c-2.480468 0-4.496094-2.019531-4.496094-4.496094v-16.480469c0-2.480468 2.015626-4.496093 4.496094-4.496093h16.480469c2.480469 0 4.496094 2.015625 4.496094 4.496093zm0 0"/><path d="m354.347656 332.578125h16.480469c10.75 0 19.496094-8.746094 19.496094-19.496094v-16.480469c0-10.75-8.746094-19.496093-19.496094-19.496093h-16.480469c-10.75 0-19.496094 8.746093-19.496094 19.496093v16.480469c0 10.75 8.746094 19.496094 19.496094 19.496094zm-4.496094-35.976563c0-2.480468 2.015626-4.496093 4.496094-4.496093h16.480469c2.480469 0 4.496094 2.015625 4.496094 4.496093v16.480469c0 2.480469-2.015625 4.496094-4.496094 4.496094h-16.480469c-2.480468 0-4.496094-2.019531-4.496094-4.496094zm0 0"/></svg>