<svg height="488pt" viewBox="0 -20 488 488" width="488pt" xmlns="http://www.w3.org/2000/svg"><path d="m335.921875 288.03125v.082031h-183.921875v-8.082031c0-8.816406 7.128906-16 16-16h151.929688c8.871093 0 16 7.183594 16 16v8zm0 0" fill="#656d78"/><path d="m456 424.097656c4.398438 0 8 3.589844 8 8v8c0 4.390625-3.601562 8-8 8h-40c-4.398438 0-8-3.609375-8-8v-8c0-4.410156 3.601562-8 8-8zm0 0" fill="#844747"/><path d="m72 424.097656c4.398438 0 8 3.589844 8 8v8c0 4.390625-3.601562 8-8 8h-39.921875c-4.398437 0-8-3.609375-8-8v-8c0-4.410156 3.601563-8 8-8zm0 0" fill="#844747"/><path d="m480 280.097656c4.398438 0 8 3.605469 8 8v136c0 4.40625-3.601562 8-8 8h-8c-4.398438 0-11.601562 0-16 0h-40c-4.398438 0-11.601562 0-16 0h-312c-4.398438 0-11.601562 0-16 0h-39.921875c-4.398437 0-11.597656 0-16 0h-8.078125c-4.398438 0-8-3.59375-8-8v-136c0-4.394531 3.601562-8 8-8h136 16 167.921875 16zm0 0" fill="#965353"/><path d="m256 304.097656h208v104h-208zm0 0" fill="#844747"/><path d="m24 304.097656h208v104h-208zm0 0" fill="#844747"/><path d="m200.078125 248.113281h88.089844v15.917969h-88.089844zm0 0" fill="#545c66"/><path d="m423.921875 216.113281v8c0 8.796875-7.203125 16-16 16h-327.921875c-8.800781 0-16-7.203125-16-16v-8zm0 0" fill="#656d78"/><path d="m423.921875 24.03125v192.082031h-359.921875v-192.082031c0-8.816406 7.199219-16 16-16h327.921875c8.796875 0 16 7.183594 16 16zm0 0" fill="#5d9cec"/><path d="m431.921875 384.097656c4.398437 0 8 3.605469 8 8v8c0 4.40625-3.601563 8-8 8h-55.851563c-4.398437 0-8-3.59375-8-8v-8c0-4.394531 3.601563-8 8-8zm0 0" fill="#a0d468"/><path d="m431.921875 360.097656c4.398437 0 8 3.605469 8 8v8c0 4.40625-3.601563 8-8 8h-55.851563c-4.398437 0-8-3.59375-8-8v-8c0-4.394531 3.601563-8 8-8zm0 0" fill="#5d9cec"/><path d="m351.855469 384.097656c4.402343 0 8 3.605469 8 8v8c0 4.40625-3.597657 8-8 8h-55.847657c-4.398437 0-8-3.59375-8-8v-8c0-4.394531 3.601563-8 8-8zm0 0" fill="#5d9cec"/><path d="m351.855469 360.097656c4.402343 0 8 3.605469 8 8v8c0 4.40625-3.597657 8-8 8h-55.847657c-4.398437 0-8-3.59375-8-8v-8c0-4.394531 3.601563-8 8-8zm0 0" fill="#ed5565"/><path d="m351.855469 336.097656c4.402343 0 8 3.605469 8 8v8c0 4.40625-3.597657 8-8 8h-55.847657c-4.398437 0-8-3.59375-8-8v-8c0-4.394531 3.601563-8 8-8zm0 0" fill="#ffce54"/><path d="m120.007812 360.097656c4.398438 0 8 3.605469 8 8v8c0 4.40625-3.601562 8-8 8h-55.839843c-4.398438 0-8-3.59375-8-8v-8c0-4.394531 3.601562-8 8-8zm0 0" fill="#ed5565"/><path d="m120.007812 384.097656c4.398438 0 8 3.605469 8 8v8c0 4.40625-3.601562 8-8 8h-55.839843c-4.398438 0-8-3.59375-8-8v-8c0-4.394531 3.601562-8 8-8zm0 0" fill="#a0d468"/><path d="m151.992188 336.097656c4.398437 0 8 3.589844 8 8v56c0 4.40625-3.601563 8-8 8h-7.921876c-4.398437 0-8-3.59375-8-8v-56c0-4.410156 3.601563-8 8-8zm0 0" fill="#ffce54"/><path d="m175.992188 336.097656c4.398437 0 8 3.589844 8 8v56c0 4.40625-3.601563 8-8 8h-7.921876c-4.398437 0-8-3.59375-8-8v-56c0-4.410156 3.601563-8 8-8zm0 0" fill="#5d9cec"/><path d="m223.769531 216.113281h-31.867187l40.050781-207.082031h31.863281zm0 0" fill="#87bcf4"/><path d="m247.800781 216.113281h-7.847656l40.046875-207.082031h16.097656-8.265625zm0 0" fill="#87bcf4"/><path d="m407.886719 248.113281h-327.878907c-13.230468 0-24-10.769531-24-24v-200.113281c0-13.230469 10.769532-24 24-24h327.878907c13.234375 0 24 10.769531 24 24v200.113281c0 13.230469-10.757813 24-24 24zm-327.878907-232.113281c-4.414062 0-8 3.59375-8 8v200.113281c0 4.421875 3.585938 8 8 8h327.878907c4.417969 0 8-3.578125 8-8v-200.113281c0-4.40625-3.582031-8-8-8zm0 0" fill="#656d78"/></svg>