<svg height="512pt" viewBox="0 0 512.00036 512" width="512pt" xmlns="http://www.w3.org/2000/svg"><path d="m468.890625 117.671875v220.023437h-271.46875v-220.023437l119.039063-73.730469c5.148437-3.191406 10.910156-4.78125 16.6875-4.78125h.011718c5.769532 0 11.539063 1.589844 16.691406 4.78125zm0 0" fill="#fe8d7d"/><path d="m468.890625 117.671875v220.023437h-135.742187v-298.535156h.011718c5.769532 0 11.539063 1.589844 16.691406 4.78125zm0 0" fill="#ee5454"/><path d="m374.320312 261.101562v76.503907h-82.320312v-76.503907c0-19.492187 15.859375-35.351562 35.371094-35.351562h11.578125c19.5 0 35.371093 15.859375 35.371093 35.351562zm0 0" fill="#1b6aa6"/><path d="m374.320312 261.101562v76.503907h-41.160156v-111.855469h5.789063c19.5 0 35.371093 15.859375 35.371093 35.351562zm0 0" fill="#173755"/><path d="m482.472656 337.648438c0 8.28125-6.710937 15-15 15h-268.632812c-8.289063 0-15-6.71875-15-15 0-8.277344 6.710937-15 15-15h268.628906c8.292969 0 15.003906 6.722656 15.003906 15zm0 0" fill="#00db7e"/><path d="m298.070312 26.25v49.371094l-76.160156 47.167968v-96.539062c0-14.46875 11.78125-26.25 26.261719-26.25h23.648437c14.480469 0 26.25 11.78125 26.25 26.25zm0 0" fill="#fe8d7d"/><path d="m509.75 145.621094c-2.839844 4.589844-7.738281 7.109375-12.761719 7.109375-2.699219 0-5.429687-.730469-7.886719-2.25l-20.210937-12.519531-134.839844-83.519532c-.269531-.171875-.589843-.261718-.890625-.261718-.320312 0-.621094.089843-.898437.261718l-34.191407 21.179688-76.160156 47.167968-24.488281 15.171876-20.210937 12.519531c-7.039063 4.359375-16.289063 2.191406-20.652344-4.859375-4.359375-7.039063-2.1875-16.28125 4.851562-20.652344l36.011719-22.296875 24.488281-15.171875 76.160156-47.167969 18.390626-11.390625c5.148437-3.191406 10.917968-4.78125 16.699218-4.78125 5.769532 0 11.539063 1.589844 16.691406 4.78125l119.039063 73.730469 36.007813 22.296875c7.042968 4.371094 9.210937 13.613281 4.851562 20.652344zm0 0" fill="#1b6aa6"/><path d="m374.160156 130.46875v42.113281c0 11-8.949218 19.9375-19.941406 19.9375h-42.128906c-10.988282 0-19.929688-8.9375-19.929688-19.9375v-42.113281c0-10.988281 8.941406-19.929688 19.929688-19.929688h42.128906c10.992188 0 19.941406 8.941407 19.941406 19.929688zm0 0" fill="#fff"/><path d="m511.851562 480.289062c0 17.492188-14.210937 31.710938-31.679687 31.710938h-417.152344c-34.75 0-63.019531-28.308594-63.019531-63.101562v-417.1875c0-17.492188 14.210938-31.710938 31.679688-31.710938 52.039062 0 94.371093 42.390625 94.371093 94.5v291.289062h291.429688c1.230469 0 2.449219.019532 3.667969.082032 50.351562 1.929687 90.703124 43.550781 90.703124 94.417968zm0 0" fill="#fff49c"/><path d="m511.851562 480.289062c0 17.492188-14.210937 31.710938-31.679687 31.710938h-354.121094v-126.210938h291.429688c1.230469 0 2.449219.019532 3.667969.082032 50.351562 1.929687 90.703124 43.550781 90.703124 94.417968zm0 0" fill="#fee276"/><g fill="#ff9c20"><path d="m279.398438 385.789062v57.132813c0 8.277344-6.71875 15-15 15-8.289063 0-15-6.722656-15-15v-57.132813zm0 0"/><path d="m207.800781 385.789062v57.132813c0 8.277344-6.722656 15-15 15-8.289062 0-15-6.722656-15-15v-57.132813zm0 0"/><path d="m351.171875 385.789062v57.132813c0 8.277344-6.722656 15-15 15-8.292969 0-15-6.722656-15-15v-57.132813zm0 0"/><path d="m421.152344 385.871094v57.050781c0 8.277344-6.722656 15-15 15-8.292969 0-15-6.722656-15-15v-57.132813h26.328125c1.230469 0 2.449219.019532 3.671875.082032zm0 0"/></g><path d="m126.050781 247.730469v30h-57.320312c-8.28125 0-15-6.71875-15-15 0-8.289063 6.71875-15 15-15zm0 0" fill="#ffc277"/><path d="m126.050781 319.449219v30h-57.320312c-8.28125 0-15-6.71875-15-15 0-8.289063 6.71875-15 15-15zm0 0" fill="#ffc277"/><path d="m126.050781 175.839844v30h-57.320312c-8.28125 0-15-6.710938-15-15 0-8.28125 6.71875-15 15-15zm0 0" fill="#ffc277"/><path d="m126.050781 105.75v30h-57.320312c-8.28125 0-15-6.71875-15-15 0-8.289062 6.71875-15 15-15zm0 0" fill="#ffc277"/><path d="m354.21875 192.519531h-21.058594v-81.980469h21.058594c10.992188 0 19.941406 8.941407 19.941406 19.929688v42.113281c0 11-8.949218 19.9375-19.941406 19.9375zm0 0" fill="#d9eeff"/><path d="m509.75 145.621094c-2.839844 4.589844-7.738281 7.109375-12.757812 7.109375-2.703126 0-5.429688-.730469-7.890626-2.25l-155.050781-96.039063c-.269531-.171875-.589843-.261718-.890625-.261718v-30.019532c5.769532 0 11.539063 1.589844 16.691406 4.78125l155.046876 96.027344c7.042968 4.371094 9.210937 13.613281 4.851562 20.652344zm0 0" fill="#173755"/><path d="m482.472656 337.648438c0 8.28125-6.710937 15-15 15h-134.3125v-30h134.308594c8.292969 0 15.003906 6.722656 15.003906 15zm0 0" fill="#00a863"/></svg>